<?xml version="1.0" encoding="utf-8"?>
<!-- Generated by IcoMoon.io -->
<!DOCTYPE svg PUBLIC "-//W3C//DTD SVG 1.1//EN" "http://www.w3.org/Graphics/SVG/1.1/DTD/svg11.dtd">
<svg version="1.1" xmlns="http://www.w3.org/2000/svg" xmlns:xlink="http://www.w3.org/1999/xlink" width="35" height="32" viewBox="0 0 35 32">
<path d="M32.702 20.62l-13.413-12.155c-0.15-0.137-0.316-0.252-0.489-0.352v-1.965h-0.128c-0.088-0.27-0.301-0.497-0.673-0.583-0.831-0.191-1.748-0.465-2.315-1.143-0.274-0.328-0.359-0.76-0.242-0.988 0.664-1.294 2.593-0.9 3.702-0.421 1.181 0.51 2.21-1.211 1.019-1.725-2.057-0.889-5.404-1.289-6.511 1.245-0.855 1.956 0.436 3.464 2.078 4.32v1.245c-0.184 0.104-0.36 0.223-0.52 0.367l-13.411 12.155c-1.127 1.021-0.748 1.849 0.845 1.849h6.377v-2.155h-3.674l11.312-10.251c0.145-0.132 0.361-0.208 0.592-0.208s0.447 0.075 0.592 0.208l11.312 10.251h-3.747v2.155h6.45c1.593 0 1.971-0.828 0.845-1.849z"></path>
<path class="clothes" d="M10.097 20.314v11.686l3.376-1.023-0.031-6.447c-0.003-0.594 0.477-1.081 1.072-1.083 0.002 0 0.004 0 0.005 0 0.593 0 1.075 0.479 1.077 1.072l0.028 5.806 8.704-2.636v-9.561h-14.232v2.186z"></path>
</svg>
