<?xml version="1.0" encoding="utf-8"?>
<!-- Generated by IcoMoon.io -->
<!DOCTYPE svg PUBLIC "-//W3C//DTD SVG 1.1//EN" "http://www.w3.org/Graphics/SVG/1.1/DTD/svg11.dtd">
<svg version="1.1" xmlns="http://www.w3.org/2000/svg" xmlns:xlink="http://www.w3.org/1999/xlink" width="32" height="32" viewBox="0 0 32 32">
<path d="M15.462 0c0.372 0 0.745 0 1.117 0 0.036 0.005 0.071 0.015 0.107 0.015 0.378 0.010 0.75 0.051 1.117 0.107 0.459 0.066 0.908 0.173 1.337 0.347 0.255 0.102 0.5 0.225 0.719 0.388 0.184 0.138 0.316 0.321 0.454 0.5 0.587 0.76 1.173 1.52 1.755 2.281 0.046 0.056 0.102 0.097 0.168 0.127 0.383 0.173 0.765 0.342 1.143 0.52 0.806 0.378 1.597 0.776 2.357 1.235 0.219 0.133 0.444 0.276 0.648 0.434 0.321 0.255 0.571 0.582 0.821 0.908 0.449 0.592 0.852 1.219 1.235 1.857 0.832 1.372 1.597 2.786 2.327 4.209 0.097 0.189 0.194 0.378 0.291 0.566 0 0.015 0 0.025 0 0.041-0.031 0.077-0.061 0.153-0.097 0.23-0.179 0.388-0.434 0.725-0.73 1.031-0.515 0.541-1.128 0.939-1.806 1.255-0.837 0.388-1.719 0.612-2.633 0.73-0.087 0.010-0.173 0.020-0.255 0.031-0.255-0.342-0.505-0.673-0.755-1.005-0.163-0.214-0.327-0.434-0.485-0.648-0.071-0.092-0.158-0.133-0.276-0.097-0.112 0.031-0.173 0.107-0.189 0.245-0.010 0.112-0.020 0.225-0.025 0.332-0.025 0.525-0.056 1.046-0.071 1.571-0.031 1.184-0.010 2.367 0.056 3.551 0.020 0.378 0.046 0.755 0.077 1.133 0.025 0.372 0.056 0.75 0.092 1.122 0.046 0.48 0.097 0.954 0.153 1.429 0.056 0.495 0.117 0.985 0.189 1.48 0.102 0.689 0.219 1.372 0.337 2.061 0.168 0.954 0.378 1.903 0.633 2.837 0.015 0.066 0.036 0.128 0.056 0.204-0.163 0.061-0.321 0.122-0.48 0.173-0.439 0.143-0.898 0.23-1.352 0.301s-0.913 0.133-1.372 0.189c-0.378 0.046-0.75 0.082-1.128 0.117-0.372 0.031-0.75 0.061-1.122 0.082-0.464 0.025-0.934 0.046-1.398 0.066-0.296 0.010-0.587 0.015-0.883 0.025-0.102 0.005-0.209 0.010-0.311 0.020-0.852 0-1.704 0-2.556 0-0.020-0.005-0.041-0.010-0.061-0.010-0.525-0.015-1.046-0.031-1.571-0.051-0.423-0.015-0.842-0.041-1.265-0.066-0.194-0.010-0.393-0.025-0.587-0.041-0.332-0.031-0.663-0.061-1-0.092-0.265-0.025-0.531-0.051-0.796-0.087-0.342-0.046-0.689-0.097-1.031-0.158-0.398-0.066-0.796-0.143-1.184-0.265-0.184-0.056-0.362-0.128-0.541-0.189 0.010-0.046 0.020-0.077 0.025-0.107 0.418-1.515 0.709-3.056 0.939-4.612 0.087-0.577 0.158-1.153 0.23-1.73 0.056-0.474 0.107-0.944 0.153-1.418 0.041-0.449 0.077-0.893 0.107-1.342 0.036-0.531 0.066-1.066 0.092-1.597 0.015-0.332 0.025-0.663 0.031-0.995 0.005-0.612 0.015-1.224 0.005-1.837-0.010-0.597-0.046-1.194-0.071-1.791-0.005-0.122-0.020-0.24-0.041-0.362-0.015-0.092-0.077-0.143-0.168-0.168-0.117-0.031-0.204 0-0.286 0.112-0.265 0.352-0.525 0.704-0.791 1.056-0.148 0.194-0.291 0.388-0.444 0.592-0.163-0.025-0.327-0.046-0.49-0.071-0.597-0.082-1.179-0.225-1.745-0.429-0.862-0.311-1.658-0.74-2.321-1.388-0.398-0.388-0.735-0.811-0.934-1.332-0.005-0.015-0.025-0.025-0.041-0.036 0-0.020 0-0.041 0-0.061 0.020-0.020 0.041-0.041 0.056-0.066 0.327-0.628 0.648-1.255 0.98-1.878 0.643-1.209 1.316-2.398 2.056-3.551 0.342-0.531 0.699-1.056 1.107-1.536 0.225-0.265 0.459-0.515 0.755-0.699 0.235-0.143 0.464-0.291 0.699-0.429 1.015-0.582 2.077-1.082 3.148-1.551 0.097-0.041 0.173-0.102 0.235-0.184 0.296-0.388 0.592-0.77 0.893-1.158 0.296-0.383 0.597-0.76 0.883-1.153 0.184-0.245 0.398-0.449 0.663-0.597 0.367-0.204 0.755-0.342 1.158-0.444 0.546-0.133 1.102-0.199 1.663-0.225 0.082-0.041 0.153-0.051 0.225-0.056zM21.258 11.664c-0.031-0.031-0.046-0.051-0.066-0.071-1.092-1.367-2.179-2.735-3.27-4.097-0.163-0.204-0.332-0.413-0.495-0.617-0.077-0.097-0.173-0.138-0.291-0.102-0.179 0.056-0.362 0.107-0.541 0.163-0.071 0.025-0.117 0.077-0.133 0.153-0.015 0.061-0.020 0.128-0.020 0.189 0 7.821 0 15.643 0 23.464 0 0.025 0 0.056 0 0.082 0.015 0.194 0.112 0.286 0.306 0.286 0.107 0 0.214 0 0.327-0.005 0.454-0.010 0.913-0.015 1.367-0.031 0.408-0.015 0.816-0.036 1.224-0.056 0.24-0.010 0.48-0.025 0.719-0.046 0.296-0.020 0.592-0.046 0.888-0.077 0.291-0.025 0.577-0.056 0.867-0.087 0.286-0.036 0.571-0.071 0.852-0.117 0.347-0.056 0.689-0.122 1.036-0.189 0.133-0.025 0.194-0.097 0.209-0.225 0.005-0.046-0.010-0.092-0.020-0.138-0.097-0.454-0.204-0.908-0.296-1.367-0.179-0.888-0.332-1.781-0.454-2.679-0.082-0.607-0.163-1.214-0.235-1.821-0.061-0.515-0.107-1.031-0.153-1.546-0.051-0.628-0.097-1.255-0.133-1.883-0.031-0.525-0.046-1.046-0.061-1.571-0.020-0.959-0.015-1.918 0.025-2.877 0.031-0.694 0.077-1.388 0.143-2.082 0.061-0.628 0.143-1.255 0.245-1.878 0.133-0.806 0.296-1.602 0.51-2.388 0.281-1.005 0.628-1.985 1.097-2.913 0.102-0.204 0.214-0.398 0.321-0.597 0.087-0.163 0.056-0.301-0.102-0.398-0.031-0.020-0.056-0.036-0.087-0.051-0.714-0.413-1.459-0.781-2.209-1.133-0.107-0.051-0.214-0.097-0.321-0.143-0.143-0.061-0.327 0.031-0.347 0.204-0.020 0.194-0.051 0.388-0.082 0.582-0.087 0.617-0.173 1.24-0.255 1.857-0.092 0.668-0.179 1.332-0.27 2-0.087 0.638-0.173 1.281-0.26 1.918-0.005 0.092-0.020 0.179-0.036 0.286zM10.778 11.664c-0.010-0.051-0.015-0.087-0.020-0.122-0.010-0.077-0.020-0.153-0.031-0.23-0.051-0.372-0.102-0.745-0.153-1.112s-0.102-0.735-0.153-1.102c-0.056-0.423-0.117-0.842-0.173-1.265-0.051-0.372-0.102-0.75-0.153-1.122-0.051-0.367-0.102-0.735-0.153-1.102-0.025-0.199-0.051-0.398-0.087-0.592-0.031-0.158-0.158-0.23-0.311-0.189-0.036 0.010-0.071 0.020-0.107 0.036-0.689 0.316-1.367 0.643-2.031 1.005-0.173 0.092-0.342 0.194-0.51 0.291-0.082 0.046-0.138 0.107-0.148 0.204-0.010 0.077 0.015 0.138 0.051 0.204 0.107 0.194 0.214 0.388 0.316 0.587 0.577 1.148 0.985 2.362 1.281 3.612 0.225 0.929 0.378 1.872 0.495 2.821 0.082 0.689 0.148 1.378 0.184 2.071 0.031 0.592 0.056 1.189 0.066 1.781 0.020 0.816 0.010 1.628-0.031 2.444-0.031 0.653-0.061 1.301-0.102 1.954-0.036 0.561-0.087 1.128-0.143 1.689-0.066 0.648-0.138 1.296-0.225 1.944-0.092 0.679-0.194 1.357-0.301 2.036-0.143 0.908-0.327 1.806-0.536 2.704-0.036 0.158 0.036 0.286 0.199 0.316 0.296 0.061 0.587 0.117 0.888 0.163 0.372 0.056 0.75 0.107 1.122 0.148 0.378 0.046 0.76 0.082 1.138 0.112 0.342 0.031 0.689 0.051 1.031 0.066 0.5 0.025 1 0.056 1.5 0.071 0.536 0.015 1.066 0.020 1.602 0.031 0.036 0 0.077 0 0.112-0.010 0.092-0.020 0.158-0.077 0.179-0.173 0.010-0.061 0.015-0.128 0.015-0.189 0-4.541 0-9.082 0-13.622 0-3.275 0-6.551 0-9.832 0-0.056 0-0.117-0.010-0.173-0.020-0.097-0.082-0.158-0.179-0.189-0.153-0.046-0.301-0.092-0.454-0.138-0.158-0.051-0.25-0.025-0.357 0.107-0.194 0.245-0.388 0.485-0.582 0.73-1.051 1.316-2.102 2.638-3.158 3.954-0.020 0.020-0.041 0.046-0.071 0.082zM7.987 13.276c0-0.010-0.005-0.025-0.005-0.036-0.031-0.189-0.056-0.372-0.087-0.561-0.138-0.883-0.327-1.75-0.571-2.612-0.281-0.985-0.643-1.944-1.133-2.847-0.020-0.036-0.041-0.071-0.061-0.107-0.087-0.143-0.311-0.143-0.408-0.015-0.025 0.036-0.056 0.066-0.082 0.102-0.367 0.469-0.699 0.969-1.020 1.475-0.694 1.102-1.337 2.24-1.949 3.393-0.23 0.429-0.449 0.862-0.673 1.296-0.066 0.127-0.061 0.24 0.020 0.362 0.173 0.25 0.367 0.48 0.592 0.679 0.459 0.413 0.985 0.725 1.551 0.959 0.551 0.23 1.128 0.372 1.709 0.49 0.168 0.036 0.281-0.015 0.383-0.153 0.286-0.393 0.577-0.775 0.867-1.163 0.26-0.347 0.52-0.699 0.786-1.046 0.051-0.066 0.077-0.133 0.082-0.214zM26.054 15.868c0.015 0 0.036-0.005 0.056-0.010 0.316-0.071 0.633-0.133 0.944-0.219 0.704-0.194 1.367-0.48 1.964-0.913 0.383-0.275 0.719-0.602 0.99-0.995 0.087-0.127 0.097-0.245 0.025-0.388-0.663-1.306-1.367-2.597-2.117-3.857-0.413-0.699-0.847-1.383-1.327-2.036-0.087-0.117-0.179-0.235-0.27-0.352-0.112-0.143-0.327-0.133-0.418 0.020-0.025 0.036-0.046 0.077-0.066 0.112-0.311 0.582-0.577 1.184-0.796 1.806-0.474 1.347-0.77 2.735-0.974 4.143-0.020 0.122 0.010 0.225 0.082 0.321 0.342 0.449 0.679 0.903 1.015 1.352 0.219 0.291 0.439 0.582 0.658 0.877 0.056 0.087 0.133 0.133 0.235 0.138zM16.018 0.837c-0.393 0.010-0.786 0.031-1.173 0.066-0.418 0.041-0.837 0.117-1.245 0.23-0.23 0.061-0.449 0.138-0.663 0.245-0.148 0.077-0.199 0.179-0.168 0.332 0.112 0.531 0.245 1.061 0.423 1.571 0.194 0.541 0.423 1.066 0.75 1.546 0.25 0.372 0.546 0.704 0.923 0.954 0.311 0.204 0.653 0.306 1.015 0.342 0.275 0.025 0.546-0.025 0.806-0.112 0.408-0.138 0.74-0.388 1.025-0.704 0.367-0.403 0.633-0.862 0.857-1.357 0.321-0.714 0.531-1.464 0.689-2.23 0.031-0.158-0.005-0.25-0.148-0.327-0.102-0.051-0.204-0.102-0.311-0.143-0.561-0.209-1.143-0.311-1.74-0.362-0.347-0.025-0.694-0.036-1.041-0.051zM20.125 2.669c-0.122 0-0.209 0.061-0.245 0.184-0.128 0.429-0.27 0.852-0.444 1.26-0.306 0.714-0.684 1.383-1.24 1.934-0.112 0.112-0.117 0.265-0.010 0.398 0.699 0.872 1.393 1.745 2.087 2.612 0.020 0.025 0.041 0.051 0.066 0.077 0.153 0.138 0.383 0.056 0.413-0.138 0.010-0.046 0.015-0.092 0.025-0.138 0.036-0.265 0.071-0.536 0.112-0.801 0.051-0.372 0.102-0.745 0.153-1.112 0.056-0.418 0.112-0.837 0.168-1.255 0.061-0.459 0.128-0.923 0.189-1.383 0.010-0.077-0.005-0.148-0.051-0.209-0.036-0.051-0.077-0.102-0.117-0.153-0.296-0.383-0.592-0.765-0.883-1.148-0.061-0.077-0.128-0.122-0.225-0.127zM10.63 4.286c0.015 0.128 0.031 0.255 0.051 0.378 0.056 0.418 0.117 0.837 0.173 1.255 0.056 0.423 0.112 0.842 0.173 1.265 0.066 0.48 0.133 0.959 0.199 1.434 0.020 0.133 0.036 0.27 0.061 0.398 0.025 0.133 0.163 0.204 0.296 0.179 0.087-0.015 0.133-0.071 0.184-0.133 0.408-0.51 0.816-1.025 1.224-1.536 0.286-0.357 0.571-0.714 0.852-1.071 0.122-0.153 0.122-0.281-0.005-0.408-0.403-0.408-0.719-0.877-0.98-1.383-0.296-0.571-0.52-1.173-0.699-1.791-0.031-0.102-0.082-0.173-0.194-0.199s-0.199 0.010-0.265 0.102c-0.337 0.439-0.673 0.872-1.010 1.311-0.046 0.056-0.061 0.122-0.061 0.199zM18.727 14.878c-0.265 0-0.485 0.214-0.485 0.48s0.214 0.485 0.48 0.485c0.27 0 0.495-0.24 0.48-0.475 0.020-0.245-0.204-0.49-0.474-0.49zM18.237 19.75c0 0.265 0.25 0.48 0.474 0.48 0.25 0.005 0.485-0.23 0.49-0.48 0-0.276-0.26-0.505-0.48-0.48-0.245-0.020-0.485 0.23-0.485 0.48zM18.727 23.658c-0.26 0-0.474 0.214-0.485 0.469-0.010 0.225 0.184 0.495 0.485 0.495s0.495-0.265 0.474-0.474c0.020-0.27-0.235-0.49-0.474-0.49zM11.146 15.077c-0.015 0.194-0.010 0.755 0.010 0.826 0.225 0.020 2.403 0.010 2.474-0.010 0-0.27 0-0.546 0-0.821-0.199-0.031-2.413-0.020-2.485 0.005z"></path>
</svg>
