<?xml version="1.0" encoding="utf-8"?>
<!-- Generated by IcoMoon.io -->
<!DOCTYPE svg PUBLIC "-//W3C//DTD SVG 1.1//EN" "http://www.w3.org/Graphics/SVG/1.1/DTD/svg11.dtd">
<svg version="1.1" xmlns="http://www.w3.org/2000/svg" xmlns:xlink="http://www.w3.org/1999/xlink" width="32" height="32" viewBox="0 0 32 32">
<path d="M29 29c0 1.519-1.231 2.75-2.75 2.75h-20.5c-1.519 0-2.75-1.231-2.75-2.75v-26c0-1.519 1.231-2.75 2.75-2.75h20.5c1.519 0 2.75 1.231 2.75 2.75v26zM27.5 3c0-0.69-0.56-1.25-1.25-1.25h-20.5c-0.69 0-1.25 0.56-1.25 1.25v26c0 0.69 0.56 1.25 1.25 1.25h20.5c0.69 0 1.25-0.56 1.25-1.25v-26z"></path>
<path d="M28.036 9.75h-24.5c-0.414 0-0.537-0.336-0.537-0.75v-5.76c0-1.537 1.226-2.99 2.749-2.99h20.31c1.607 0 2.94 1.576 2.94 2.99v5.76c0 0.414-0.55 0.75-0.964 0.75zM4.5 8.25h23v-5.009c0-0.675-0.761-1.491-1.44-1.491h-20.31c-0.684 0-1.249 0.794-1.249 1.491v5.009z"></path>
<path d="M11.75 9.5c-0.414 0-0.75-0.336-0.75-0.75v-7.5c0-0.414 0.336-0.75 0.75-0.75s0.75 0.336 0.75 0.75v7.5c0 0.414-0.336 0.75-0.75 0.75z"></path>
<path d="M25.603 5.12c0 0.714-0.578 1.293-1.293 1.293s-1.293-0.579-1.293-1.293c0-0.714 0.578-1.293 1.293-1.293s1.293 0.579 1.293 1.293z"></path>
<path d="M21.982 5.12c0 0.714-0.578 1.293-1.293 1.293s-1.293-0.579-1.293-1.293c0-0.714 0.578-1.293 1.293-1.293s1.293 0.579 1.293 1.293z"></path>
<path d="M18.362 5.12c0 0.714-0.58 1.293-1.293 1.293-0.714 0-1.293-0.579-1.293-1.293s0.578-1.293 1.293-1.293c0.714 0 1.293 0.579 1.293 1.293z"></path>
<g opacity="0.6">
    <path d="M15.613 27.917c-3.961 0-7.183-3.222-7.183-7.183s3.222-7.183 7.183-7.183c3.96 0 7.183 3.222 7.183 7.183s-3.223 7.183-7.183 7.183zM15.613 15.051c-3.134 0-5.683 2.549-5.683 5.683s2.55 5.683 5.683 5.683c3.133 0 5.683-2.55 5.683-5.683s-2.55-5.683-5.683-5.683z"></path>
    <path d="M12.876 23.106c-1.754 0-3.277-1.023-4.047-1.842-0.284-0.302-0.27-0.776 0.032-1.060 0.3-0.284 0.774-0.271 1.058 0.030v0c0.104 0.109 2.57 2.636 5.094 0.521 2.857-2.391 5.86-1.037 7.047 0.013 0.31 0.274 0.34 0.748 0.066 1.058s-0.749 0.34-1.058 0.066c-0.099-0.087-2.521-2.139-5.091 0.013-1.045 0.875-2.11 1.201-3.1 1.201z"></path>
    <path d="M19.655 22.189c0 0.286-0.231 0.517-0.517 0.517s-0.517-0.231-0.517-0.517c0-0.285 0.231-0.517 0.517-0.517s0.517 0.231 0.517 0.517z"></path>
    <path d="M19.137 24.258c0 0.285-0.231 0.517-0.517 0.517s-0.517-0.232-0.517-0.517 0.232-0.517 0.517-0.517c0.285 0 0.517 0.231 0.517 0.517z"></path>
    <path d="M17.068 22.706c0 0.285-0.231 0.517-0.517 0.517s-0.517-0.231-0.517-0.517c0-0.286 0.231-0.517 0.517-0.517s0.517 0.231 0.517 0.517z"></path>
    <path d="M16.034 24.775c0 0.285-0.231 0.517-0.517 0.517s-0.517-0.231-0.517-0.517c0-0.286 0.231-0.517 0.517-0.517s0.517 0.231 0.517 0.517z"></path>
    <path d="M12.93 23.74c0 0.285-0.231 0.517-0.517 0.517s-0.517-0.231-0.517-0.517 0.231-0.517 0.517-0.517c0.286 0 0.517 0.232 0.517 0.517z"></path>
</g>
</svg>
